<?xml version="1.0" encoding="utf-8"?>
<!-- Generator: Adobe Illustrator 19.2.0, SVG Export Plug-In . SVG Version: 6.00 Build 0)  -->
<svg version="1.1" id="Layer_1" xmlns="http://www.w3.org/2000/svg" xmlns:xlink="http://www.w3.org/1999/xlink" x="0px" y="0px"
	 viewBox="0 0 500 500" style="enable-background:new 0 0 500 500;" xml:space="preserve">
<style type="text/css">
	.st0{fill:#ECF4F7;}
	.st1{fill:#1C1D21;}
	.st2{fill:#83E1E5;}
	.st3{fill:#AAB1BA;}
	.st4{fill:none;stroke:#1C1D21;stroke-width:10;stroke-linecap:round;stroke-linejoin:round;stroke-miterlimit:10;}
	.st5{fill:#FDDF7F;}
	.st6{fill:#FFFFFF;}
</style>
<g>
	<g>
		<g>
			<ellipse class="st0" cx="250" cy="352.5" rx="245" ry="74.1"/>
		</g>
	</g>
	<g>
		<g>
			<path class="st1" d="M250,431.6c-65.9,0-128-7.8-174.7-21.9C26.7,395,0,374.7,0,352.5s26.7-42.5,75.3-57.2
				c46.7-14.1,108.8-21.9,174.7-21.9c65.9,0,128,7.8,174.7,21.9c48.6,14.7,75.3,35,75.3,57.2s-26.7,42.5-75.3,57.2
				C378,423.9,315.9,431.6,250,431.6z M250,283.4c-143.6,0-240,35.7-240,69.1s96.4,69.1,240,69.1s240-35.7,240-69.1
				S393.6,283.4,250,283.4z"/>
		</g>
	</g>
	<g>
		<g>
			<path class="st0" d="M368.4,352.2L368.4,352.2c-78.1,15.9-158.7,15.9-236.8,0l0,0c-20.4-4.2-35-22.1-35-42.8v-82.7
				C96.6,142,165.3,73.4,250,73.4h0c84.7,0,153.4,68.7,153.4,153.4v82.7C403.4,330.2,388.8,348.1,368.4,352.2z"/>
		</g>
	</g>
	<g>
		<g>
			<path class="st1" d="M171.5,100c-1.7,0-3.4-0.9-4.3-2.4c-1.4-2.4-0.6-5.4,1.7-6.9c3.2-1.9,6.5-3.7,9.8-5.4
				c2.5-1.2,5.5-0.3,6.7,2.2c1.2,2.5,0.3,5.5-2.2,6.7c-3.1,1.6-6.2,3.3-9.2,5.1C173.2,99.7,172.3,100,171.5,100z"/>
		</g>
	</g>
	<g>
		<g>
			<path class="st1" d="M115,158.9c-0.8,0-1.6-0.2-2.4-0.6c-2.4-1.3-3.3-4.3-2-6.8c8.1-15,18.5-28.5,31-40.2c2-1.9,5.2-1.8,7.1,0.2
				c1.9,2,1.8,5.2-0.2,7.1c-11.7,11-21.4,23.6-29,37.7C118.5,157.9,116.8,158.9,115,158.9z"/>
		</g>
	</g>
	<g>
		<g>
			<path class="st1" d="M250,369.2c-39.9,0-79.8-4-119.4-12.1c-22.6-4.6-39-24.7-39-47.7v-82.7c0-15.3,2.2-30.4,6.4-44.9
				c0.8-2.6,3.6-4.2,6.2-3.4c2.6,0.8,4.2,3.6,3.4,6.2c-4,13.6-6,27.7-6,42v82.7c0,18.3,13,34.3,31,37.9
				c77.9,15.9,156.9,15.9,234.8,0c17.9-3.7,31-19.6,31-37.9v-82.7c0-81.8-66.6-148.4-148.4-148.4c-12.5,0-25,1.6-37,4.6
				c-2.7,0.7-5.4-0.9-6.1-3.6c-0.7-2.7,0.9-5.4,3.6-6.1c12.8-3.3,26.1-5,39.5-5c87.3,0,158.4,71,158.4,158.4v82.7
				c0,23.1-16.4,43.1-39,47.7C329.8,365.2,289.9,369.2,250,369.2z"/>
		</g>
	</g>
	<g>
		<g>
			<path class="st3" d="M368.4,298.6L368.4,298.6c-78.1,15.9-158.7,15.9-236.8,0h0c-20.4-4.2-35-22.1-35-42.8v53.6
				c0,20.8,14.6,38.7,35,42.8h0c78.1,15.9,158.7,15.9,236.8,0h0c20.4-4.2,35-22.1,35-42.8v-53.6
				C403.4,276.6,388.8,294.5,368.4,298.6z"/>
		</g>
	</g>
	<g>
		<g>
			<path class="st1" d="M250,369.2c-39.9,0-79.8-4-119.4-12.1c-22.6-4.6-39-24.7-39-47.7v-53.6c0-2.8,2.2-5,5-5c2.8,0,5,2.2,5,5
				c0,18.3,13,34.3,31,37.9c77.9,15.9,156.9,15.9,234.8,0l1,4.9l-1-4.9c17.9-3.7,31-19.6,31-37.9c0-2.8,2.2-5,5-5c2.8,0,5,2.2,5,5
				v53.6c0,23.1-16.4,43.1-39,47.7C329.8,365.2,289.9,369.2,250,369.2z M101.6,285.3v24.1c0,18.3,13,34.3,31,37.9
				c77.9,15.9,156.9,15.9,234.8,0c17.9-3.7,31-19.6,31-37.9v-24.1c-7,9.1-17.1,15.8-29,18.2l0,0c-79.2,16.2-159.6,16.2-238.8,0
				C118.7,301.1,108.6,294.4,101.6,285.3z"/>
		</g>
	</g>
</g>
</svg>
